<svg xmlns="http://www.w3.org/2000/svg" width="1200" height="248.09165" viewBox="0 0 1200 248.09165">
  <title>Asset 17</title>
  <g id="Layer_2" data-name="Layer 2">
    <g id="Layer_1-2" data-name="Layer 1">
      <g>
        <path d="M61.44225,35.52657H0V0H162.48306V35.52657H100.75V192.18409H61.44225Z" fill="#bd2269"/>
        <path d="M233.806,44.84239c42.22047-.58171,78.32876,34.06808,77.45619,75.12513.87257,41.05705-35.52657,76.29277-77.747,75.4202-42.22469.87257-77.747-34.36315-76.87448-75.4202C155.76809,78.91047,191.5813,43.96982,233.806,44.84239Zm0,35.81743c-21.83949,0-37.27171,16.59565-37.27171,39.59856,0,22.42119,15.43222,39.021,37.27171,39.021,21.25356,0,37.27171-16.59986,37.27171-39.021S255.05955,80.65982,233.806,80.65982Z" fill="#bd2269"/>
        <path d="M563.98645,192.18409H524.67453V108.32064c0-17.17736-10.18838-27.95168-25.62482-27.95168-15.43223,0-26.4974,11.06517-26.4974,27.07911v84.736h-39.3077V108.32064c0-17.17736-10.1926-27.95168-25.62482-27.95168-16.01394,0-26.4974,10.77432-26.4974,27.95168v83.86345H341.81048V48.046h36.10828V60.86054c9.61089-10.1926,24.16633-16.01815,40.7662-16.01815,18.92671,0,33.19551,6.989,42.80218,20.67606,11.356-12.81452,28.24675-20.67606,48.046-20.67606,33.77723,0,54.45329,23.00291,54.45329,57.94777Z" fill="#bd2269"/>
        <path d="M823.69547,192.18409H784.38356V108.32064c0-17.17736-10.18839-27.95168-25.62483-27.95168-15.43222,0-26.49739,11.06517-26.49739,27.07911v84.736h-39.3077V108.32064c0-17.17736-10.1926-27.95168-25.62483-27.95168-16.01393,0-26.49739,10.77432-26.49739,27.95168v83.86345H601.5195V48.046h36.10829V60.86054c9.60667-10.1926,24.16633-16.01815,40.76619-16.01815,18.92671,0,33.19551,6.989,42.80219,20.67606,11.356-12.81452,28.24674-20.67606,48.046-20.67606,33.77722,0,54.45328,23.00291,54.45328,57.94777Z" fill="#bd2269"/>
        <path d="M992.55207,48.046V177.62443c0,21.83949-6.403,39.01685-18.92671,51.54051-12.51945,12.51945-29.11509,18.92671-50.082,18.92671a97.75359,97.75359,0,0,1-66.97273-26.78825l20.67606-27.37418c14.26458,12.52367,26.78825,18.63586,42.22047,18.63586,20.09014,0,33.77722-9.89753,33.77722-31.737v-8.73832c-10.77431,10.1926-23.87547,15.14137-39.89362,15.14137-32.6138,0-53.5765-23.29377-53.5765-58.23441V48.046H899.082v75.416c0,17.18157,10.48346,28.24674,26.79246,28.24674,16.30479,0,27.37-11.356,27.37-27.95589V48.046Z" fill="#bd2269"/>
        <path d="M1031.01557,0H1075.858l-16.30479,80.95068h-29.9961Z" fill="#bd2269"/>
        <path d="M1103.908,143.84721c12.51945,13.10116,26.20653,19.50842,40.47533,19.50842,10.48346,0,18.345-4.0762,18.345-11.93774,0-6.1164-4.0762-8.44325-14.85051-13.10537l-15.43222-6.40305c-26.4974-10.77431-39.31192-22.71626-39.31192-43.96982,0-27.07911,21.54863-43.09726,52.99479-43.09726,21.54863,0,38.7302,7.27983,51.83136,21.54863l-19.79927,24.16633c-9.61089-9.025-20.38521-13.68287-32.32295-13.68287-9.60667,0-15.43222,3.49448-15.43222,10.1926,0,5.53048,3.78534,8.1524,15.14137,12.81031l13.97794,5.82554C1187.47634,117.059,1200,128.415,1200,149.66854c0,14.2688-5.24384,25.62483-16.01394,33.77723q-15.72517,12.23492-40.18448,12.2328c-25.334,0-46.59174-10.48345-59.6929-27.95588Z" fill="#bd2269"/>
      </g>
    </g>
  </g>
</svg>
